# xmcd
#
# Track frame offsets:
#  150
#  14656
#  26993
#  41408
#  55833
#  69010
#  82046
#  96432
#  111283
#  124411
#  136987
#  151732
#  165842
#  177925
#  190536
#  203004
#  212860
#  226669
#  239862
#  251657
#  265231
#  275999
#
# Disc length: 3834 seconds
#
# Revision: 0
# Processed by: cddbd v1.5.1PL2 Copyright (c) Steve Scherf et al.
# Submitted via: Collectorz.com_Music_Collector 6.9
#
DISCID=3b0ef816
DTITLE=Various Artist - Texas and Louisiana Slide Masters - Blues and Western Swing Guitar Stylists
DYEAR=2005
DGENRE=Blues
TTITLE0=Oscar Buddy Woods - Lone Wolf Blues
TTITLE1=Ramblin' Thomas - So Lonesome
TTITLE2=Blind Willie Johnson - You're Gonna Need Somebody On Your Bond
TTITLE3=Ramblin' Thomas - No Job Blues
TTITLE4=Leadbelly - Packing Trunk Blues
TTITLE5=Oscar Buddy Woods - Muscat Hill Blues
TTITLE6=Jimmy Davis - A Woman's Blues
TTITLE7=Ed "Dizzy Head" Schaffer - Fence Breaking Blues
TTITLE8=Henry Thomas - Shanty Blues
TTITLE9=Black Ace - Black Ace
TTITLE10=Black Ace - Whiskey and Women
TTITLE11=Noah Moore - Sittin' Here Thinkin'
TTITLE12=Tom Bell - I'm Worried Now
TTITLE13=Buddy Jones - Alice From Dallas
TTITLE14=Frankie Lee Sims - Single Man Blues
TTITLE15=Lil' Son Jackson - Thrill Me Babay
TTITLE16=Smokey Hogg - Red Beans and Rice
TTITLE17=Leon McAuliffe - Blacksmith Blues
TTITLE18=L.C. Robinson - Why Don't You Write To Me?
TTITLE19=Mercy Dee - Trailing My Baby
TTITLE20=Mercy Dee - Trying To Kick The Habit
TTITLE21=Billy Briggs - Pretty Baby Blues
EXTD=
EXTT0=
EXTT1=
EXTT2=
EXTT3=
EXTT4=
EXTT5=
EXTT6=
EXTT7=
EXTT8=
EXTT9=
EXTT10=
EXTT11=
EXTT12=
EXTT13=
EXTT14=
EXTT15=
EXTT16=
EXTT17=
EXTT18=
EXTT19=
EXTT20=
EXTT21=
PLAYORDER=
